PathFileType	4	(X/Y/Z)	C:\Users\Biomechanik\SynologyDrive\AlexP\Athlete_03\Athlete_3_25_03_31\Deadlift_35kg_01\marker_experimental.trc
DataRate	CameraRate	NumFrames	NumMarkers	Units	OrigDataRate	OrigDataStartFrame	OrigNumFrames
200.000000	200.000000	4	55	mm	200.000000	1030	2060
Frame#	Time	BL			BR			GLAB			RFHD			LFHD			C7			T6			SPINMOL			SPINM2			SPINM3			T12			BELTOL			BELT2			BELT3			SACROL			SACR2			SACR3			LTHOL			LTH2			LTH3			LSHAOL			LSHA2			LSHA3			LHEE			LTOE			LM5			RTHOL			RTH2			RTH3			RSHAOL			RSHA2			RSHA3			RHEE			RTOE			RM5			STRN			XIPH			LACR			LUAOL			LUA2			LUA3			LLAOL			LLA2			LLA3			LWRR			LWRU			RACR			RUAOL			RUA2			RUA3			RLAOL			RLA2			RLA3			RWRR			RWRU			
		X1	Y1	Z1	X2	Y2	Z2	X3	Y3	Z3	X4	Y4	Z4	X5	Y5	Z5	X6	Y6	Z6	X7	Y7	Z7	X8	Y8	Z8	X9	Y9	Z9	X10	Y10	Z10	X11	Y11	Z11	X12	Y12	Z12	X13	Y13	Z13	X14	Y14	Z14	X15	Y15	Z15	X16	Y16	Z16	X17	Y17	Z17	X18	Y18	Z18	X19	Y19	Z19	X20	Y20	Z20	X21	Y21	Z21	X22	Y22	Z22	X23	Y23	Z23	X24	Y24	Z24	X25	Y25	Z25	X26	Y26	Z26	X27	Y27	Z27	X28	Y28	Z28	X29	Y29	Z29	X30	Y30	Z30	X31	Y31	Z31	X32	Y32	Z32	X33	Y33	Z33	X34	Y34	Z34	X35	Y35	Z35	X36	Y36	Z36	X37	Y37	Z37	X38	Y38	Z38	X39	Y39	Z39	X40	Y40	Z40	X41	Y41	Z41	X42	Y42	Z42	X43	Y43	Z43	X44	Y44	Z44	X45	Y45	Z45	X46	Y46	Z46	X47	Y47	Z47	X48	Y48	Z48	X49	Y49	Z49	X50	Y50	Z50	X51	Y51	Z51	X52	Y52	Z52	X53	Y53	Z53	X54	Y54	Z54	X55	Y55	Z55	

1031	5.15	2227.286376953125	725.6515502929689	345.5752868652348	206.6402435302734	685.1663818359375	352.3033142089844	1193.526733398438	1628.3369140625	333.1202087402346	1131.035522460938	1648.465454101562	280.2225341796877	1266.997924804688	1646.040771484375	287.7309265136721	1204.761840820312	1434.669189453125	120.9576873779299	1210.446899414062	1257.10595703125	100.9425964355471	1232.876586914062	1226.050903320312	101.1480102539065	1183.31201171875	1216.848266601562	97.98963928222678	1218.28857421875	1162.174926757812	111.9550552368166	1216.143310546875	1114.858520507812	126.1791076660159	1231.203735351562	1089.955322265625	104.8494262695315	1181.180908203125	1086.1552734375	106.4109878540041	1211.161376953125	1026.966064453125	99.41242218017601	1236.101684570312	968.1184692382814	92.8810958862307	1184.711303710938	965.5386962890626	96.26725006103537	1211.61669921875	909.3911132812501	73.44890594482445	1400.36083984375	684.7925415039064	179.488708496094	1368.92236328125	631.1712036132814	129.2416534423831	1386.233032226562	625.2019042968751	176.1406555175784	1395.032348632812	326.283416748047	161.1590423583987	1382.625732421875	262.2484436035157	115.1763153076174	1389.991455078125	264.5453186035157	164.4948730468753	1307.406860351562	68.42289733886727	105.3366012573245	1320.759643554688	47.28303146362313	321.0371093750002	1421.630249023438	29.64861679077157	272.9174499511722	1028.644897460938	696.5637207031251	169.4384765625002	1016.092590332031	640.4719238281251	223.4783172607424	1034.963256835938	635.9082031250001	178.2507781982424	1023.357238769531	342.5219116210938	149.2725830078127	1019.339477539062	272.4708557128907	183.4003295898439	1033.901733398438	281.5922241210938	137.1988372802736	1125.063598632812	61.00901794433601	111.9813003540041	1100.110717773438	47.49273300170905	324.8739929199221	1002.724304199219	39.57231521606452	267.2512817382814	1207.48876953125	1371.978881835938	308.9282531738284	1209.048095703125	1243.98046875	366.6799011230471	1385.682739257812	1399.382690429688	220.5788269042971	1484.115478515625	1248.858642578125	280.4089355468753	1502.014038085938	1186.42919921875	290.2909851074222	1463.870239257812	1202.423461914062	322.1726989746097	1500.119995117188	986.1454467773439	341.666198730469	1508.938232421875	919.3875122070314	300.2207641601565	1501.968383789062	925.0983276367189	349.0248718261722	1498.98583984375	819.5810546875001	380.0993652343753	1424.046630859375	813.8149414062501	352.4819030761722	1034.224853515625	1396.01904296875	230.5541381835939	944.4321289062499	1241.916259765625	279.6919555664064	959.7093505859373	1188.060668945312	316.511932373047	925.6760253906249	1178.745483398438	278.0707092285158	931.6883544921873	965.0429687500001	325.196014404297	930.8057250976561	911.1051635742189	383.4898071289064	928.5726318359374	902.8445434570314	334.0623474121095	929.9229736328124	817.3762817382814	378.2684326171877	1001.945922851562	794.2476196289064	342.0583496093752	
1032	5.155	2227.239501953125	725.7499389648439	345.586090087891	206.5858459472655	685.0923461914062	352.2575378417969	1193.475463867188	1628.326904296875	333.1904296875002	1130.978637695312	1648.45458984375	280.299011230469	1266.896362304688	1646.011596679688	287.7642517089846	1204.72216796875	1434.679809570312	121.0073699951174	1210.427856445312	1257.10986328125	100.9843750000002	1232.855224609375	1226.052001953125	101.1906661987307	1183.292602539062	1216.847778320312	98.03265380859396	1218.265014648438	1162.178955078125	111.998001098633	1216.13037109375	1114.857055664062	126.2266845703127	1231.192504882812	1089.965454101562	104.9360122680666	1181.16845703125	1086.155639648438	106.4545364379885	1211.158569335938	1026.961059570312	99.43182373046898	1236.093994140625	968.1233520507814	92.92451477050804	1184.70263671875	965.5390014648439	96.3079071044924	1211.610473632812	909.3850708007814	73.48352813720726	1400.34326171875	684.7987060546876	179.5361938476565	1368.845458984375	631.1649780273439	129.3584442138674	1386.23486328125	625.2043457031251	176.1757659912112	1395.0302734375	326.2879943847657	161.1851806640628	1382.627685546875	262.2573547363282	115.1947860717776	1389.987548828125	264.5510253906251	164.5172882080081	1307.406372070312	68.43101501464852	105.3397750854495	1320.75390625	47.28543472290047	321.0559387207034	1421.62646484375	29.65364456176767	272.9184570312503	1028.642944335938	696.5567016601564	169.4640045166018	1016.089904785156	640.4652099609376	223.5035705566408	1034.95849609375	635.9047241210939	178.275833129883	1023.357604980469	342.5222778320313	149.2880554199221	1019.340454101562	272.4667663574219	183.4113006591799	1033.902099609375	281.5921325683594	137.2099456787111	1125.065307617188	61.00817871093757	111.9816741943362	1100.115356445312	47.50061035156256	324.8746643066409	1002.725646972656	39.5733604431153	267.252166748047	1207.440063476562	1371.962524414062	308.9803771972659	1209.014770507812	1243.944458007812	366.7113952636721	1385.6416015625	1399.409912109375	220.6324768066409	1484.06103515625	1248.87890625	280.4392395019534	1502.062744140625	1186.482055664062	290.3275146484378	1463.853393554688	1202.441528320312	322.2065429687503	1500.112060546875	986.1708984375001	341.6860046386722	1508.925048828125	919.3773803710939	300.2605590820315	1501.933715820312	925.0996704101564	349.0643310546878	1498.9541015625	819.5869140625001	380.1221008300784	1424.014404296875	813.8356323242189	352.4988708496097	1034.184204101562	1396.005126953125	230.5831604003908	944.3568725585936	1241.904052734375	279.7039794921877	959.6718749999998	1188.036376953125	316.4998474121095	925.6431884765624	1178.7216796875	278.060028076172	931.644104003906	965.0169067382814	325.179656982422	930.7639160156249	911.0884399414064	383.492156982422	928.5307617187499	902.8305664062501	334.0554809570314	929.8753051757811	817.3453369140626	378.2404174804689	1001.900451660156	794.2311401367189	342.054901123047	
1033	5.16	2227.19384765625	725.8482666015626	345.5983276367191	206.5337829589843	685.01708984375	352.2150268554688	1193.422607421875	1628.314819335938	333.2622985839846	1130.917358398438	1648.441650390625	280.3772583007815	1266.791381835938	1645.981567382812	287.8006286621096	1204.68212890625	1434.690795898438	121.054641723633	1210.4072265625	1257.113159179688	101.0251998901369	1232.83251953125	1226.050903320312	101.2372360229494	1183.27197265625	1216.847412109375	98.07633209228537	1218.240234375	1162.182250976562	112.0390548706057	1216.116333007812	1114.855346679688	126.2727508544924	1231.1787109375	1089.974975585938	105.0207672119143	1181.154541015625	1086.156372070312	106.4986953735354	1211.155883789062	1026.955078125	99.44763946533226	1236.085815429688	968.1275634765626	92.96592712402366	1184.6943359375	965.5394287109376	96.34391021728537	1211.604125976562	909.3776245117189	73.51862335205101	1400.32861328125	684.8074951171876	179.5791931152346	1368.765258789062	631.1537475585939	129.483825683594	1386.235229492188	625.2075805664064	176.2100677490237	1395.02685546875	326.2930908203126	161.2100524902346	1382.6279296875	262.2663269042969	115.212585449219	1389.982177734375	264.5567321777344	164.539489746094	1307.405639648438	68.4390411376954	105.3432998657229	1320.747802734375	47.28791427612313	321.0756530761721	1421.622436523438	29.65862083435067	272.920104980469	1028.6396484375	696.5490722656251	169.4901428222658	1016.086181640625	640.4575195312501	223.5303649902346	1034.952392578125	635.9008178710939	178.3018341064455	1023.356323242188	342.5225219726563	149.3051910400393	1019.340942382812	272.4620971679688	183.4237518310549	1033.9013671875	281.5915832519532	137.2223968505861	1125.066528320312	61.00714874267585	111.9820709228518	1100.11962890625	47.50775146484381	324.8753662109377	1002.726867675781	39.57432937622077	267.2529296875002	1207.391479492188	1371.94580078125	309.0310058593752	1208.9814453125	1243.90673828125	366.741882324219	1385.600341796875	1399.436401367188	220.6833801269534	1484.002075195312	1248.897827148438	280.4690551757815	1502.111938476562	1186.534057617188	290.3609924316409	1463.83544921875	1202.459350585938	322.2395935058597	1500.104614257812	986.1986083984376	341.7052001953128	1508.910034179688	919.3686523437501	300.3017883300784	1501.896606445312	925.1010131835939	349.1057128906253	1498.9228515625	819.5935058593751	380.1455078125003	1423.983520507812	813.8548583984376	352.5126953125003	1034.143310546875	1395.9921875	230.6142425537111	944.2882690429686	1241.890258789062	279.7178344726564	959.641906738281	1188.009887695312	316.4913330078127	925.6071166992186	1178.69970703125	278.0551757812502	931.6011962890623	964.9910278320314	325.1661071777345	930.7235717773436	911.0709228515626	383.4979248046877	928.4902954101561	902.8162231445314	334.050018310547	929.8314819335936	817.3128662109376	378.2120056152345	1001.858093261719	794.2140502929689	342.0532226562502	
1034	5.165	2227.1484375	725.9454956054689	345.6121826171879	206.4843597412109	684.941162109375	352.1767272949219	1193.368530273438	1628.30029296875	333.335632324219	1130.852172851562	1648.426635742188	280.4573669433596	1266.684936523438	1645.951171875	287.8408813476565	1204.6416015625	1434.702270507812	121.0989074707034	1210.385009765625	1257.115600585938	101.064880371094	1232.807861328125	1226.047485351562	101.2873992919924	1183.249755859375	1216.84716796875	98.1204071044924	1218.214111328125	1162.1845703125	112.0780944824221	1216.10107421875	1114.853515625	126.317077636719	1231.162841796875	1089.98388671875	105.1025619506838	1181.139526367188	1086.1572265625	106.5420227050783	1211.153198242188	1026.948120117188	99.46045684814476	1236.07763671875	968.1314086914064	93.00562286376976	1184.6865234375	965.5403442382814	96.37533569335959	1211.598022460938	909.3696899414064	73.55428314209007	1400.318359375	684.8195190429689	179.6161346435549	1368.685791015625	631.1367187500001	129.615417480469	1386.234130859375	625.2117309570314	176.2433013916018	1395.02197265625	326.2987060546876	161.2331542968753	1382.626342773438	262.2752990722657	115.2293395996096	1389.975219726562	264.5624389648438	164.560974121094	1307.404663085938	68.44686126708993	105.3470916748049	1320.741455078125	47.29049301147469	321.0955200195315	1421.618041992188	29.66347694396982	272.9222717285159	1028.635009765625	696.5410156250001	169.5165710449221	1016.081298828125	640.4490356445314	223.5582122802736	1034.94482421875	635.8966674804689	178.3284149169924	1023.353210449219	342.5227355957032	149.3236236572268	1019.340881347656	272.4569396972657	183.4374694824221	1033.899291992188	281.5906677246094	137.2360229492189	1125.067626953125	61.00595855712898	111.9824523925783	1100.123779296875	47.51396560668952	324.8760681152346	1002.727844238281	39.57522964477545	267.2535095214845	1207.34326171875	1371.92919921875	309.0798034667971	1208.948120117188	1243.868408203125	366.7712097167971	1385.559204101562	1399.461791992188	220.7312774658206	1483.940185546875	1248.91552734375	280.498229980469	1502.158081054688	1186.58349609375	290.3893737792972	1463.816284179688	1202.4765625	322.2714843750003	1500.09765625	986.2282104492189	341.7229309082034	1508.892944335938	919.3613891601564	300.3436279296878	1501.857421875	925.1024780273439	349.1482238769534	1498.891967773438	819.6008911132814	380.1694641113284	1423.953857421875	813.8723144531251	352.5228271484378	1034.102294921875	1395.97998046875	230.6472625732424	944.2280883789061	1241.8740234375	279.732879638672	959.6195678710935	1187.9814453125	316.4868774414064	925.5684814453124	1178.679077148438	278.056121826172	931.5597534179685	964.9653930664064	325.1558837890627	930.6852416992186	911.0523681640626	383.5078430175783	928.4515380859374	902.8014526367189	334.046356201172	929.7922363281249	817.2792968750001	378.1839294433595	1001.818664550781	794.1963500976564	342.0536193847658	
